HIERARCHY
ROOT Hips
{
  OFFSET 5.72205e-005 65.662 3.42586
  CHANNELS 6 Xposition Yposition Zposition Zrotation Xrotation Yrotation
  JOINT Chest
  {
    OFFSET 0 8.7983 -4.7612
    CHANNELS 3 Zrotation Xrotation Yrotation
    JOINT Chest2
    {
      OFFSET 0 8.0291 0.4195
      CHANNELS 3 Zrotation Xrotation Yrotation
      JOINT Chest3
      {
        OFFSET 0 9.9351 -2.2114
        CHANNELS 3 Zrotation Xrotation Yrotation
        JOINT Neck
        {
          OFFSET 0 22.3885 -0.4656
          CHANNELS 3 Zrotation Xrotation Yrotation
          JOINT Head
          {
            OFFSET -0.0001 12.643 3.4389
            CHANNELS 3 Zrotation Xrotation Yrotation
            End Site
            {
              OFFSET 0.0001 17.6655 0.5274
            }
          }
        }
        JOINT LeftCollar
        {
          OFFSET 2.2603 21.606 7.4023
          CHANNELS 3 Zrotation Xrotation Yrotation
          JOINT LeftShoulder
          {
            OFFSET 13.5163 -1.1332 -5.0146
            CHANNELS 3 Zrotation Xrotation Yrotation
            JOINT LeftElbow
            {
              OFFSET -0.0995 -28.05 -0.2431
              CHANNELS 3 Zrotation Xrotation Yrotation
              JOINT LeftWrist
              {
                OFFSET 0.0679 -23.3996 -0.1402
                CHANNELS 3 Zrotation Xrotation Yrotation
                JOINT LeftFinger1
                {
                  OFFSET 0.7932 -9.069 2.5189
                  CHANNELS 3 Zrotation Xrotation Yrotation
                  JOINT LeftFinger11
                  {
                    OFFSET -0.8272 -3.3923 0.5977
                    CHANNELS 3 Zrotation Xrotation Yrotation
                    JOINT LeftFinger12
                    {
                      OFFSET -0.5649 -2.3158 0.4082
                      CHANNELS 3 Zrotation Xrotation Yrotation
                      End Site
                      {
                        OFFSET -0.4919 -1.6479 0.2673
                      }
                    }
                  }
                }
                JOINT LeftFinger2
                {
                  OFFSET 0.9159 -9.2044 0.2193
                  CHANNELS 3 Zrotation Xrotation Yrotation
                  JOINT LeftFinger21
                  {
                    OFFSET 0.0117 -4.1944 -0.0248
                    CHANNELS 3 Zrotation Xrotation Yrotation
                    JOINT LeftFinger22
                    {
                      OFFSET 0.0071 -2.3249 -0.0142
                      CHANNELS 3 Zrotation Xrotation Yrotation
                      End Site
                      {
                        OFFSET -0.1475 -2.0882 0.0028
                      }
                    }
                  }
                }
                JOINT LeftFinger3
                {
                  OFFSET 0.6113 -8.7231 -2.0637
                  CHANNELS 3 Zrotation Xrotation Yrotation
                  JOINT LeftFinger31
                  {
                    OFFSET -0.1927 -3.8059 -0.2383
                    CHANNELS 3 Zrotation Xrotation Yrotation
                    JOINT LeftFinger32
                    {
                      OFFSET -0.1091 -2.1688 -0.1362
                      CHANNELS 3 Zrotation Xrotation Yrotation
                      End Site
                      {
                        OFFSET -0.2358 -1.9176 -0.0906
                      }
                    }
                  }
                }
                JOINT LeftFinger4
                {
                  OFFSET -0.6151 -8.0947 -3.5641
                  CHANNELS 3 Zrotation Xrotation Yrotation
                  JOINT LeftFinger41
                  {
                    OFFSET -0.4882 -2.341 -0.6462
                    CHANNELS 3 Zrotation Xrotation Yrotation
                    JOINT LeftFinger42
                    {
                      OFFSET -0.3575 -1.7167 -0.4742
                      CHANNELS 3 Zrotation Xrotation Yrotation
                      End Site
                      {
                        OFFSET -0.4187 -1.5237 -0.3496
                      }
                    }
                  }
                }
                JOINT LeftFinger0
                {
                  OFFSET -1.42 -1.8761 1.4223
                  CHANNELS 3 Zrotation Xrotation Yrotation
                  JOINT LeftFinger01
                  {
                    OFFSET -1.1471 -3.4929 2.6334
                    CHANNELS 3 Zrotation Xrotation Yrotation
                    JOINT LeftFinger02
                    {
                      OFFSET -0.823 -2.3 1.6571
                      CHANNELS 3 Zrotation Xrotation Yrotation
                      End Site
                      {
                        OFFSET -0.5822 -1.6914 1.1582
                      }
                    }
                  }
                }
              }
            }
          }
        }
        JOINT RightCollar
        {
          OFFSET -2.2603 21.606 7.4023
          CHANNELS 3 Zrotation Xrotation Yrotation
          JOINT RightShoulder
          {
            OFFSET -13.5187 -1.1334 -5.0155
            CHANNELS 3 Zrotation Xrotation Yrotation
            JOINT RightElbow
            {
              OFFSET 0.0994 -28.0499 -0.2431
              CHANNELS 3 Zrotation Xrotation Yrotation
              JOINT RightWrist
              {
                OFFSET -0.0679 -23.3996 -0.1402
                CHANNELS 3 Zrotation Xrotation Yrotation
                JOINT RightFinger1
                {
                  OFFSET -0.7932 -9.0691 2.5189
                  CHANNELS 3 Zrotation Xrotation Yrotation
                  JOINT RightFinger11
                  {
                    OFFSET 0.8272 -3.3923 0.5977
                    CHANNELS 3 Zrotation Xrotation Yrotation
                    JOINT RightFinger12
                    {
                      OFFSET 0.565 -2.3158 0.4082
                      CHANNELS 3 Zrotation Xrotation Yrotation
                      End Site
                      {
                        OFFSET 0.4919 -1.6479 0.2673
                      }
                    }
                  }
                }
                JOINT RightFinger2
                {
                  OFFSET -0.916 -9.2044 0.2193
                  CHANNELS 3 Zrotation Xrotation Yrotation
                  JOINT RightFinger21
                  {
                    OFFSET -0.0117 -4.1944 -0.0248
                    CHANNELS 3 Zrotation Xrotation Yrotation
                    JOINT RightFinger22
                    {
                      OFFSET -0.0071 -2.3249 -0.0142
                      CHANNELS 3 Zrotation Xrotation Yrotation
                      End Site
                      {
                        OFFSET 0.1475 -2.0882 0.0028
                      }
                    }
                  }
                }
                JOINT RightFinger3
                {
                  OFFSET -0.6113 -8.7231 -2.0637
                  CHANNELS 3 Zrotation Xrotation Yrotation
                  JOINT RightFinger31
                  {
                    OFFSET 0.1927 -3.8059 -0.2383
                    CHANNELS 3 Zrotation Xrotation Yrotation
                    JOINT RightFinger32
                    {
                      OFFSET 0.1091 -2.1688 -0.1362
                      CHANNELS 3 Zrotation Xrotation Yrotation
                      End Site
                      {
                        OFFSET 0.2358 -1.9176 -0.0906
                      }
                    }
                  }
                }
                JOINT RightFinger4
                {
                  OFFSET 0.6151 -8.0947 -3.564
                  CHANNELS 3 Zrotation Xrotation Yrotation
                  JOINT RightFinger41
                  {
                    OFFSET 0.4882 -2.341 -0.6462
                    CHANNELS 3 Zrotation Xrotation Yrotation
                    JOINT RightFinger42
                    {
                      OFFSET 0.3574 -1.7166 -0.4742
                      CHANNELS 3 Zrotation Xrotation Yrotation
                      End Site
                      {
                        OFFSET 0.4187 -1.5237 -0.3496
                      }
                    }
                  }
                }
                JOINT RightFinger0
                {
                  OFFSET 1.4199 -1.8761 1.4221
                  CHANNELS 3 Zrotation Xrotation Yrotation
                  JOINT RightFinger01
                  {
                    OFFSET 1.1472 -3.4929 2.6336
                    CHANNELS 3 Zrotation Xrotation Yrotation
                    JOINT RightFinger02
                    {
                      OFFSET 0.8229 -2.3 1.6571
                      CHANNELS 3 Zrotation Xrotation Yrotation
                      End Site
                      {
                        OFFSET 0.5822 -1.6914 1.1582
                      }
                    }
                  }
                }
              }
            }
          }
        }
      }
    }
  }
  JOINT RightHip
  {
    OFFSET -9.412 3.9771 -0.7758
    CHANNELS 3 Zrotation Xrotation Yrotation
    JOINT RightKnee
    {
      OFFSET -0.7531 -40.938 0
      CHANNELS 3 Zrotation Xrotation Yrotation
      JOINT RightAnkle
      {
        OFFSET 0 -40.1986 0
        CHANNELS 3 Zrotation Xrotation Yrotation
        JOINT RightToe
        {
          OFFSET 0 -4.4182 9.239
          CHANNELS 3 Zrotation Xrotation Yrotation
          End Site
          {
            OFFSET 0 0 6.1981
          }
        }
      }
    }
  }
  JOINT LeftHip
  {
    OFFSET 9.4119 3.9773 -0.7758
    CHANNELS 3 Zrotation Xrotation Yrotation
    JOINT LeftKnee
    {
      OFFSET 0.7532 -40.9383 0
      CHANNELS 3 Zrotation Xrotation Yrotation
      JOINT LeftAnkle
      {
        OFFSET 0 -40.1986 0
        CHANNELS 3 Zrotation Xrotation Yrotation
        JOINT LeftToe
        {
          OFFSET 0 -4.4182 9.239
          CHANNELS 3 Zrotation Xrotation Yrotation
          End Site
          {
            OFFSET 0 0 6.1981
          }
        }
      }
    }
  }
}
MOTION
Frames:	4
Frame Time:	0.0333333
5.72205e-005 65.662 3.42586 0 0 -0 0 0 -0 0 0 -0 0 0 -0 0 0 -0 0 0 -0 0 0 -12.5014 88.1196 14.2451 10.6914 -0.00160068 -0.00239207 0.000740045 -8.4365e-005 7.00714e-005 -9.52055e-007 9.93923e-017 -1.98785e-016 -1.59028e-015 9.93923e-017 -5.96354e-016 -1.59028e-015 -9.93923e-017 -5.96354e-016 -1.59028e-015 9.93923e-017 -1.98785e-016 -1.59028e-015 -0.0128176 0.00232552 8.52707e-005 9.93923e-017 5.96354e-016 -0 9.93923e-017 -1.98785e-016 -1.59028e-015 -0.0160551 0.00299681 0.000857156 -2.48481e-016 0 3.18055e-015 9.93923e-017 -1.98785e-016 -1.59028e-015 -0.0125865 0.0031206 0.00282719 0 1.98785e-016 -0 9.93923e-017 -1.98785e-016 -1.59028e-015 9.93923e-017 -5.96354e-016 -1.59028e-015 -9.93923e-017 -5.96354e-016 -1.59028e-015 -0.865644 0.16582 7.03859 -88.0329 10.2057 -10.5567 0.0015593 -0.00248883 -0.000788628 7.87605e-005 4.10553e-005 1.24965e-005 -3.97569e-016 -7.95139e-016 3.18055e-015 -1.98785e-016 -3.97569e-016 3.18055e-015 -1.98785e-016 0 3.18055e-015 -3.97569e-016 -7.95139e-016 3.18055e-015 0.0129473 0.00231697 -8.70038e-005 9.93923e-017 -7.95139e-016 1.59028e-015 -3.97569e-016 -7.95139e-016 3.18055e-015 0.0163314 0.00303369 -0.000872333 3.97569e-016 7.95139e-016 -3.18055e-015 -3.97569e-016 -7.95139e-016 3.18055e-015 0.0145763 0.00367772 -0.00326275 9.93923e-017 -3.97569e-016 -0 -3.97569e-016 -7.95139e-016 3.18055e-015 -1.98785e-016 -3.97569e-016 3.18055e-015 -1.98785e-016 0 3.18055e-015 3.42482 1.32465 -0.0626183 0.000117508 0.717283 0.000978199 -3.4257 -2.04197 -0.0604716 6.47761e-025 0 -0 -3.42483 1.34017 0.0627307 -0.000193936 0.682302 -0.0013703 3.42574 -2.02253 0.0595886 -8.45714e-024 0 -7.40531e-025 
17.112 20.5434 -23.3188 -66.6886 76.3044 0.0107964 1.77314 -0.487965 -0.404614 3.54297 -0.988176 -0.793952 3.54297 -0.988164 -0.793929 3.43856e-005 44.4705 -1.66343e-005 -0.0299253 4.92918 0.00181206 -14.3398 -1.92322 -46.0699 58.4905 0.316445 29.1861 1.24698 -10.4552 8.37085 -12.2539 -22.4912 -2.62077 5.77457e-008 1.3942e-008 5.80832e-006 4.17448e-015 -2.83268e-015 -0 -2.88729e-008 -2.00554e-006 -2.90416e-006 5.77457e-008 1.3942e-008 5.80832e-006 -0.0127982 0.00231701 8.76424e-005 -1.03745e-005 -7.52175e-006 -4.93526e-006 5.77457e-008 1.3942e-008 5.80832e-006 -0.0160853 0.00299104 0.000850565 4.72114e-015 4.96962e-016 -3.18055e-015 5.77457e-008 1.3942e-008 5.80832e-006 -0.0126146 0.00311309 0.00281822 8.77309e-006 3.55304e-006 9.42955e-006 5.77457e-008 1.3942e-008 5.80832e-006 4.17448e-015 -2.83268e-015 -0 -2.88729e-008 -2.00554e-006 -2.90416e-006 -0.922476 0.67127 25.6697 -46.193 -0.502377 -20.8757 -33.4543 -46.9079 -76.0957 32.9862 2.44198 13.282 -9.58015e-006 2.33288e-007 3.83351e-006 9.58015e-006 -2.33288e-007 -3.83351e-006 -9.58015e-006 2.33287e-007 3.83351e-006 -9.58015e-006 2.33288e-007 3.83351e-006 0.0129467 0.00231377 -9.0579e-005 -2.08724e-015 -3.18055e-015 -7.95139e-016 -9.58015e-006 2.33288e-007 3.83351e-006 0.01628 0.00302368 -0.000873874 2.71172e-007 1.50178e-006 8.08897e-007 -9.58015e-006 2.33288e-007 3.83351e-006 0.014519 0.00366613 -0.00325186 5.42328e-007 4.50484e-008 1.6178e-006 -9.58015e-006 2.33288e-007 3.83351e-006 9.58015e-006 -2.33288e-007 -3.83351e-006 -9.58015e-006 2.33287e-007 3.83351e-006 -1.44311 -10.4515 -1.56612 28.2449 46.4097 -26.0607 -5.25557 17.509 1.53701 -8.90029e-006 4.52362e-007 2.19275e-006 1.03689 -27.7488 1.78362 -1.69814 25.372 1.3111 4.72408 3.8112 0.632557 3.97569e-016 -1.59028e-015 2.88238e-015 
32.2872 -0.836617 -31.8042 83.3267 69.3586 179.989 2.59345 -0.573959 -0.194086 5.18536 -1.15612 -0.362038 5.18536 -1.15613 -0.362033 9.37011e-005 64.2015 -4.22033e-006 -0.0433288 6.09159 0.00189963 -21.0356 -2.4425 -60.727 45.5487 -7.14011 36.9195 1.80696 -16.1727 11.9716 -18.0118 -32.2268 -4.32996 6.76104e-006 -6.0566e-007 3.86838e-006 -4.34071e-006 -7.42597e-007 -1.85848e-006 8.42694e-006 -1.03605e-006 4.53096e-006 6.76104e-006 -6.0566e-007 3.86838e-006 -0.0128196 0.00232259 8.27331e-005 3.81781e-007 -5.61849e-008 -1.22098e-006 6.76104e-006 -6.0566e-007 3.86838e-006 -0.0160086 0.00298308 0.000852087 3.18331e-006 -7.01306e-007 -4.31906e-007 6.76104e-006 -6.0566e-007 3.86838e-006 -0.0125795 0.0031147 0.00282833 -1.36812e-005 -3.13772e-006 -5.7049e-006 6.76104e-006 -6.0566e-007 3.86838e-006 -4.34071e-006 -7.42597e-007 -1.85848e-006 8.42694e-006 -1.03605e-006 4.53096e-006 -1.2182 0.770202 33.9347 -27.7352 -6.31764 -24.7322 -52.6203 -67.7164 -111.796 47.7748 3.122 18.0322 1.26416e-005 3.66144e-006 -1.5227e-006 2.31249e-006 -1.67878e-006 -2.15195e-006 6.78328e-007 -1.55296e-006 1.41702e-006 1.26416e-005 3.66144e-006 -1.5227e-006 0.0129663 0.00232423 -8.83255e-005 -1.81212e-006 -6.05309e-006 -9.70581e-007 1.26416e-005 3.66144e-006 -1.5227e-006 0.0163499 0.00303984 -0.000875791 -1.05873e-005 -7.73799e-006 2.54532e-006 1.26416e-005 3.66144e-006 -1.5227e-006 0.0146001 0.00368388 -0.00326052 -9.66768e-006 -7.26418e-006 4.01443e-006 1.26416e-005 3.66144e-006 -1.5227e-006 2.31249e-006 -1.67878e-006 -2.15195e-006 6.78328e-007 -1.55296e-006 1.41702e-006 -3.10067 -16.1808 -1.89989 63.127 59.2137 -56.3058 -6.83298 27.1177 2.59271 1.82551e-005 -3.2449e-006 3.15951e-006 3.79987 -40.8964 3.12322 -2.97636 37.7886 2.22999 5.51222 5.22741 0.94215 -3.18055e-015 3.18055e-015 1.59028e-015 
28.7449 4.40932 -30.213 89.9997 76.9891 179.985 2.41389 -0.346035 -0.290293 4.82615 -0.70399 -0.56575 4.82615 -0.70398 -0.565769 0.000200579 59.1931 -2.87223e-005 -0.0401122 3.48492 0.00027228 -18.5427 -2.92598 -56.4316 47.2356 -5.99717 34.9438 1.74979 -17.1371 11.1205 -16.0151 -29.361 -3.48753 -1.98785e-015 1.59028e-015 -3.18055e-015 -7.95139e-016 -1.59028e-015 1.59028e-015 4.37326e-015 3.18055e-015 -1.59028e-015 -1.98785e-015 1.59028e-015 -3.18055e-015 -0.0128223 0.00232811 7.88356e-005 2.38542e-015 -3.18055e-015 -0 -1.98785e-015 1.59028e-015 -3.18055e-015 -0.0160702 0.00299802 0.000858585 -5.1684e-015 3.18055e-015 -0 -1.98785e-015 1.59028e-015 -3.18055e-015 -0.0125621 0.00311773 0.00282522 -2.78299e-015 -1.59028e-015 6.36111e-015 -1.98785e-015 1.59028e-015 -3.18055e-015 -7.95139e-016 -1.59028e-015 1.59028e-015 4.37326e-015 3.18055e-015 -1.59028e-015 -1.45877 0.611552 31.8313 -31.6244 -5.11967 -23.7967 -49.5499 -63.9082 -104.959 44.295 2.61215 16.857 -1.3339e-005 -4.50887e-006 3.21641e-006 8.70612e-007 -1.24093e-006 -1.88061e-006 1.24684e-005 4.01449e-006 -1.3358e-006 -1.3339e-005 -4.50887e-006 3.21641e-006 0.0129452 0.00231558 -8.63277e-005 -3.0523e-007 -5.17616e-006 -5.12751e-007 -1.3339e-005 -4.50887e-006 3.21641e-006 0.0163396 0.00303325 -0.000876549 6.11558e-007 -3.05926e-006 1.52326e-006 -1.3339e-005 -4.50887e-006 3.21641e-006 0.0145593 0.0036727 -0.00325935 1.69138e-005 3.93513e-006 -1.90821e-006 -1.3339e-005 -4.50887e-006 3.21641e-006 8.70612e-007 -1.24093e-006 -1.88061e-006 1.24684e-005 4.01449e-006 -1.3358e-006 -2.3333 -15.1154 -1.06786 53.3273 57.2831 -47.6794 -5.57197 25.0508 1.58406 7.8023e-015 -7.95139e-016 -0 3.1975 -38.1232 2.80401 -2.71265 35.2748 2.02371 5.3172 4.81475 0.869738 7.95139e-016 -6.36111e-015 -1.19271e-015 
